<svg version="1.1" id="Layer_1" xmlns="http://www.w3.org/2000/svg" xmlns:xlink="http://www.w3.org/1999/xlink" x="0px" y="0px"
	 width="100%" height="100%" viewBox="0 0 333.077 292.308" enable-background="new 0 0 333.077 292.308"
	 xml:space="preserve">
<g>
	<circle fill="none" stroke="#88B04B" stroke-width="4" cx="146.351" cy="69.802" r="7"/>
	<path fill="#88B04B" stroke="#88B04B" stroke-width="2" d="M68.851,10.551c-5,12.5-0.5,39.25,46,46.25c42.533,6.402,53.5,33,48,23
		c-7.563-13.75-15.5-25.5-46-30C66.375,42.354,68.851,10.551,68.851,10.551z"/>
	<path fill="#88B04B" stroke="#88B04B" stroke-width="2" d="M10.851,59.802c5.324,11.408,15.5,23,62,30c42.533,6.402,64,36,58.5,26
		c-7.563-13.75-26-28.5-56.5-33C24.375,75.354,7.351,52.302,10.851,59.802z"/>
	<path fill="#88B04B" stroke="#88B04B" stroke-width="2" d="M23.056,89.651c-9.975-1.73,22.799,27.34,18.268,16.479
		c-3.471-8.318,4.87-10.498,3.519-11.318C39.695,91.687,36.072,91.911,23.056,89.651z"/>
	<path fill="#88B04B" stroke="#88B04B" stroke-width="2" d="M109.06,189.978c-1.03,3.463,10.639-6.938,6.6-5.785
		c-3.092,0.883-3.516-2.164-3.863-1.719C110.476,184.167,110.403,185.46,109.06,189.978z"/>
	<path fill="#88B04B" stroke="#88B04B" stroke-width="2" d="M89.908,186.222c-2.374,4.049,15.575-5.451,10.124-5.25
		c-4.176,0.154-3.766-3.82-4.341-3.369C93.497,179.329,93.004,180.938,89.908,186.222z"/>
	<path fill="#88B04B" stroke="#88B04B" stroke-width="2" d="M66.799,171.823c-6.225,2.744,22.93,6.811,16.353,2.42
		c-5.038-3.361-1.183-7.686-2.244-7.643C76.866,166.769,74.921,168.243,66.799,171.823z"/>
	<path fill="#88B04B" stroke="#88B04B" stroke-width="2" d="M46.102,148.767c-8.274,0.738,23.858,16.85,17.967,9.197
		c-4.512-5.859,1.639-9.352,0.395-9.717C59.722,146.86,56.897,147.804,46.102,148.767z"/>
	<path fill="#88B04B" stroke="#88B04B" stroke-width="2" d="M33.089,119.478c-8.936-1.264,21.075,23.723,16.735,14.173
		c-3.325-7.315,4.046-9.49,2.82-10.184C47.971,120.827,44.749,121.128,33.089,119.478z"/>
	<path fill="#88B04B" stroke="#88B04B" stroke-width="2" d="M97.351,279.802c12-18,9.832,0.004,17.842-46.332
		c7.325-42.385,34.155-52.77,24.038-47.49c-13.911,7.262-25.831,14.943-30.993,45.338C99.694,281.618,92.76,286.688,97.351,279.802z
		"/>
	<path fill="#88B04B" stroke="#88B04B" stroke-width="2" d="M117.062,259.478c8.273-12.41,6.779,0.004,12.301-31.943
		c5.05-29.221,24.988-45.232,16.988-39.232c-8.655,6.49-18.224,16.793-21.783,37.75
		C118.677,260.731,113.897,264.226,117.062,259.478z"/>
	<path fill="#88B04B" stroke="#88B04B" stroke-width="2" d="M133.156,245.724c6.617-9.926,5.422,0.002,9.838-25.549
		c4.04-23.371,18.356-36.373,11.856-29.873c-6.119,6.117-12.845,11.926-15.691,28.688
		C134.448,246.726,130.624,249.522,133.156,245.724z"/>
	<path fill="#88B04B" stroke="#88B04B" stroke-width="2" d="M144.787,232.304c4.691-7.037,3.844,0,6.976-18.115
		c2.863-16.568,17.088-33.387,8.405-21.178c-6.409,9.012-9.106,8.455-11.125,20.338
		C145.703,233.013,142.992,234.995,144.787,232.304z"/>
	<path fill="#88B04B" stroke="#88B04B" stroke-width="2" d="M121.642,118.765c8.209,5.537,7.709,4.037,16.709,35.037
		c6.758,23.277,18.426,30.254,12.809,27.123c-7.725-4.307-10.479-6.568-16.76-26.02C119.351,108.302,85.042,94.083,121.642,118.765z
		"/>
	<path fill="#88B04B" stroke="#88B04B" stroke-width="2" d="M58.96,105.296c-6.886-0.585,17.129,17.236,13.402,10.119
		c-2.855-5.45,2.687-7.428,1.719-7.906C70.396,105.69,67.945,106.058,58.96,105.296z"/>
	<path fill="#88B04B" stroke="#88B04B" stroke-width="2" d="M115.187,179.36c-0.625,2.105,6.465-4.215,4.012-3.514
		c-1.879,0.535-2.137-1.314-2.348-1.045C116.048,175.831,116.004,176.616,115.187,179.36z"/>
	<path fill="#88B04B" stroke="#88B04B" stroke-width="2" d="M103.199,172.991c-1.442,2.461,9.464-3.313,6.152-3.189
		c-2.537,0.094-2.289-2.322-2.638-2.047C105.38,168.804,105.081,169.782,103.199,172.991z"/>
	<path fill="#88B04B" stroke="#88B04B" stroke-width="2" d="M90.868,164.118c-3.604,2.025,14.269,2.771,10.032,0.504
		c-3.244-1.738-1.166-4.58-1.805-4.49C96.659,160.47,95.569,161.476,90.868,164.118z"/>
	<path fill="#88B04B" stroke="#88B04B" stroke-width="2" d="M76.869,150.901c-4.836,1.445,16.253,7.133,11.815,3.293
		c-3.398-2.941-0.161-5.768-0.946-5.834C84.746,148.11,83.179,149.017,76.869,150.901z"/>
	<path fill="#88B04B" stroke="#88B04B" stroke-width="2" d="M65.561,130.156c-5.47,0.399,15.569,11.376,11.763,6.263
		c-2.917-3.916,1.181-6.157,0.364-6.41C74.572,129.042,72.697,129.636,65.561,130.156z"/>
	<circle fill="none" stroke="#88B04B" stroke-width="4" cx="186.726" cy="69.302" r="7"/>
	<path fill="#88B04B" stroke="#88B04B" stroke-width="2" d="M264.226,10.051c5,12.5,0.5,39.25-46,46.25c-42.534,6.402-53.5,33-48,23
		c7.563-13.75,15.5-25.5,46-30C266.701,41.854,264.226,10.051,264.226,10.051z"/>
	<path fill="#88B04B" stroke="#88B04B" stroke-width="2" d="M322.226,59.302c-5.324,11.408-15.5,23-62,30
		c-42.533,6.402-64,36-58.5,26c7.563-13.75,26-28.5,56.5-33C308.701,74.854,325.726,51.802,322.226,59.302z"/>
	<path fill="#88B04B" stroke="#88B04B" stroke-width="2" d="M310.019,89.151c9.977-1.73-22.799,27.34-18.268,16.479
		c3.471-8.318-4.869-10.498-3.518-11.318C293.38,91.187,297.003,91.411,310.019,89.151z"/>
	<path fill="#88B04B" stroke="#88B04B" stroke-width="2" d="M224.017,189.478c1.029,3.463-10.639-6.938-6.602-5.785
		c3.092,0.883,3.518-2.164,3.863-1.719C222.601,183.667,222.673,184.96,224.017,189.478z"/>
	<path fill="#88B04B" stroke="#88B04B" stroke-width="2" d="M243.169,185.722c2.373,4.049-15.576-5.451-10.125-5.25
		c4.176,0.154,3.768-3.82,4.342-3.369C239.58,178.829,240.072,180.438,243.169,185.722z"/>
	<path fill="#88B04B" stroke="#88B04B" stroke-width="2" d="M266.277,171.323c6.225,2.744-22.93,6.811-16.354,2.42
		c5.039-3.361,1.184-7.686,2.244-7.643C256.21,166.269,258.154,167.743,266.277,171.323z"/>
	<path fill="#88B04B" stroke="#88B04B" stroke-width="2" d="M286.974,148.267c8.273,0.738-23.857,16.85-17.967,9.197
		c4.512-5.859-1.639-9.352-0.396-9.717C273.353,146.36,276.179,147.304,286.974,148.267z"/>
	<path fill="#88B04B" stroke="#88B04B" stroke-width="2" d="M299.986,118.978c8.938-1.264-21.074,23.723-16.734,14.173
		c3.324-7.315-4.047-9.49-2.82-10.184C285.105,120.327,288.328,120.628,299.986,118.978z"/>
	<path fill="#88B04B" stroke="#88B04B" stroke-width="2" d="M236.226,279.302c-12-18-9.832,0.004-17.842-46.332
		c-7.326-42.385-34.156-52.77-24.039-47.49c13.912,7.262,25.832,14.943,30.994,45.338
		C233.882,281.118,240.816,286.188,236.226,279.302z"/>
	<path fill="#88B04B" stroke="#88B04B" stroke-width="2" d="M216.515,258.978c-8.273-12.41-6.779,0.004-12.301-31.943
		c-5.051-29.221-24.988-45.232-16.988-39.232c8.654,6.49,18.223,16.793,21.783,37.75C214.9,260.231,219.679,263.726,216.515,258.978
		z"/>
	<path fill="#88B04B" stroke="#88B04B" stroke-width="2" d="M200.421,245.224c-6.617-9.926-5.422,0.002-9.84-25.549
		c-4.039-23.371-18.356-36.373-11.856-29.873c6.12,6.117,12.846,11.926,15.692,28.688
		C199.128,246.226,202.953,249.022,200.421,245.224z"/>
	<path fill="#88B04B" stroke="#88B04B" stroke-width="2" d="M188.789,231.804c-4.691-7.037-3.844,0-6.975-18.115
		c-2.864-16.568-17.088-33.387-8.406-21.178c6.41,9.012,9.107,8.455,11.125,20.338C187.873,232.513,190.583,234.495,188.789,231.804
		z"/>
	<path fill="#88B04B" stroke="#88B04B" stroke-width="2" d="M274.115,104.796c6.887-0.585-17.129,17.236-13.402,10.119
		c2.855-5.45-2.686-7.428-1.719-7.906C262.679,105.19,265.13,105.558,274.115,104.796z"/>
	<path fill="#88B04B" stroke="#88B04B" stroke-width="2" d="M217.89,178.86c0.625,2.105-6.465-4.215-4.012-3.514
		c1.879,0.535,2.137-1.314,2.348-1.045C217.029,175.331,217.072,176.116,217.89,178.86z"/>
	<path fill="#88B04B" stroke="#88B04B" stroke-width="2" d="M229.878,172.491c1.441,2.461-9.465-3.313-6.152-3.189
		c2.537,0.094,2.289-2.322,2.637-2.047C227.697,168.304,227.996,169.282,229.878,172.491z"/>
	<path fill="#88B04B" stroke="#88B04B" stroke-width="2" d="M242.208,163.618c3.604,2.025-14.268,2.771-10.031,0.504
		c3.244-1.738,1.166-4.58,1.805-4.49C236.417,159.97,237.507,160.976,242.208,163.618z"/>
	<path fill="#88B04B" stroke="#88B04B" stroke-width="2" d="M256.207,150.401c4.838,1.445-16.252,7.133-11.814,3.293
		c3.398-2.941,0.162-5.768,0.947-5.834C248.33,147.61,249.898,148.517,256.207,150.401z"/>
	<path fill="#88B04B" stroke="#88B04B" stroke-width="2" d="M267.515,129.656c5.471,0.399-15.568,11.376-11.762,6.263
		c2.916-3.916-1.182-6.157-0.365-6.41C258.503,128.542,260.378,129.136,267.515,129.656z"/>
	<path fill="#88B04B" stroke="#88B04B" stroke-width="2" d="M166.851,84.802c-7.517,0,0.5,20.5,0.5,20.5
		S174.351,84.802,166.851,84.802z"/>
	<path fill="#88B04B" stroke="#88B04B" stroke-miterlimit="10" d="M167.711,87.298c-0.876-0.344,0.279,11.451,0.279,11.451
		S171.61,88.829,167.711,87.298z"/>
	<path fill="#88B04B" stroke="#88B04B" stroke-width="2" d="M208.832,119.765c-8.209,5.537-7.709,4.037-16.709,35.037
		c-6.758,23.277-18.426,30.254-12.809,27.123c7.725-4.307,10.479-6.568,16.76-26.02C211.123,109.302,245.431,95.083,208.832,119.765
		z"/>
	<path fill="#88B04B" stroke="#88B04B" stroke-width="2" d="M147.502,109.423c1.768,0.008-4.778-0.16-6.28,6.229
		C139.911,121.235,144.282,109.408,147.502,109.423z"/>
	<path fill="#88B04B" stroke="#88B04B" stroke-width="2" d="M158.433,116.419c0.56-0.395-1.546,1.025-0.582,3.383
		C158.693,121.861,157.412,117.141,158.433,116.419z"/>
	<path fill="#88B04B" stroke="#88B04B" stroke-width="2" d="M152.58,113.323c1.257-0.243-3.417,0.555-3.589,5.305
		C148.841,122.78,150.29,113.764,152.58,113.323z"/>
	<path fill="#88B04B" stroke="#88B04B" stroke-width="2" d="M186.011,110.923c-1.768,0.008,4.777-0.16,6.279,6.229
		C193.603,122.735,189.232,110.908,186.011,110.923z"/>
	<path fill="#88B04B" stroke="#88B04B" stroke-width="2" d="M175.081,117.919c-0.56-0.395,1.546,1.025,0.582,3.383
		C174.82,123.361,176.102,118.641,175.081,117.919z"/>
	<path fill="#88B04B" stroke="#88B04B" stroke-width="2" d="M180.933,114.823c-1.256-0.243,3.418,0.555,3.59,5.305
		C184.673,124.28,183.224,115.264,180.933,114.823z"/>
	<path fill="#88B04B" stroke="#88B04B" stroke-width="2" d="M88.829,114.625c-4.778-0.406,11.886,11.96,9.3,7.021
		c-1.981-3.782,1.865-5.154,1.193-5.485C96.764,114.899,95.063,115.153,88.829,114.625z"/>
	<path fill="#88B04B" stroke="#88B04B" stroke-width="2" d="M120.176,165.828c-0.827,1.797,6.309-2.935,4.03-2.623
		c-1.746,0.236-1.739-1.447-1.961-1.234C121.396,162.786,121.257,163.482,120.176,165.828z"/>
	<path fill="#88B04B" stroke="#88B04B" stroke-width="2" d="M112.309,161.187c-0.89,2.344,7.716-4.257,4.863-3.665
		c-2.185,0.452-2.322-1.678-2.585-1.388C113.585,157.238,113.47,158.13,112.309,161.187z"/>
	<path fill="#88B04B" stroke="#88B04B" stroke-width="2" d="M100.255,147.771c-3.356,1.003,11.278,4.948,8.199,2.284
		c-2.358-2.04-0.112-4.002-0.657-4.048C105.721,145.834,104.633,146.462,100.255,147.771z"/>
	<path fill="#88B04B" stroke="#88B04B" stroke-width="2" d="M92.908,133.375c-3.795,0.277,10.804,7.894,8.162,4.346
		c-2.023-2.718,0.819-4.272,0.252-4.448C99.161,132.602,97.86,133.014,92.908,133.375z"/>
	<path fill="#88B04B" stroke="#88B04B" stroke-width="2" d="M248.791,112.125c4.777-0.406-11.887,11.96-9.301,7.021
		c1.982-3.782-1.863-5.154-1.191-5.485C240.855,112.399,242.556,112.653,248.791,112.125z"/>
	<path fill="#88B04B" stroke="#88B04B" stroke-width="2" d="M209.017,169.468c0.826,1.797-6.309-2.935-4.029-2.623
		c1.744,0.236,1.738-1.447,1.961-1.234C207.796,166.426,207.937,167.122,209.017,169.468z"/>
	<path fill="#88B04B" stroke="#88B04B" stroke-width="2" d="M221.017,161.968c0.889,2.344-7.717-4.257-4.863-3.665
		c2.186,0.452,2.322-1.678,2.584-1.388C219.74,158.02,219.857,158.911,221.017,161.968z"/>
	<path fill="#88B04B" stroke="#88B04B" stroke-width="2" d="M235.38,145.995c3.172,1.481-11.879,3.251-8.443,1.064
		c2.629-1.675,0.693-3.943,1.238-3.909C230.255,143.282,231.24,144.062,235.38,145.995z"/>
	<path fill="#88B04B" stroke="#88B04B" stroke-width="2" d="M244.273,131.165c3.77,0.513-11.273,7.206-8.416,3.83
		c2.188-2.587-0.553-4.315,0.023-4.456C238.08,130.004,239.353,130.496,244.273,131.165z"/>
</g>
</svg>
